<?xml version="1.0" encoding="UTF-8"?>
<svg id="Layer_1" xmlns="http://www.w3.org/2000/svg" version="1.1" viewBox="0 0 24 24">
  <!-- Generator: Adobe Illustrator 30.1.0, SVG Export Plug-In . SVG Version: 2.1.1 Build 136)  -->
  <defs>
    <style>
      .st0 {
        fill: #fff;
      }
    </style>
  </defs>
  <path class="st0" d="M12.5,0c1.3,0,2.6,0,3.9,0,0,1.5.6,3.1,1.8,4.2,1.1,1.1,2.7,1.6,4.2,1.8v4c-1.4,0-2.9-.4-4.2-1-.6-.3-1.1-.6-1.6-.9,0,2.9,0,5.8,0,8.8,0,1.4-.5,2.8-1.4,3.9-1.3,1.9-3.6,3.2-5.9,3.2-1.4,0-2.9-.3-4.1-1-2-1.2-3.4-3.4-3.7-5.7,0-.5,0-1,0-1.5.2-1.9,1.1-3.7,2.6-5,1.7-1.4,4-2.1,6.1-1.7,0,1.5,0,3,0,4.4-1-.3-2.2-.2-3,.4-.6.4-1.1,1-1.4,1.8-.2.5-.2,1.1-.1,1.6.2,1.6,1.8,3,3.5,2.9,1.1,0,2.2-.7,2.8-1.6.2-.3.4-.7.4-1.1.1-1.8,0-3.6,0-5.4,0-4,0-8.1,0-12.1Z"/>
</svg>